                <svg width="62" height="62" fill="none" xmlns="http://www.w3.org/2000/svg">
                  <g clipPath="url(#google_svg__google-clip)">
                    <path
                      d="M13.74 37.467l-2.158 8.057-7.888.167A30.862 30.862 0 010 31c0-5.14 1.25-9.988 3.466-14.257h.002l7.022 1.288 3.077 6.98A18.429 18.429 0 0012.572 31c0 2.276.412 4.456 1.169 6.467z"
                      fill="#FBBB00"></path>
                    <path
                      d="M61.456 25.209a31.03 31.03 0 01.542 5.79c0 2.22-.233 4.385-.678 6.473-1.509 7.107-5.452 13.312-10.914 17.703l-.002-.002-8.845-.451-1.252-7.815a18.475 18.475 0 007.95-9.434H31.68V25.208h29.777z"
                      fill="#518EF8"></path>
                    <path
                      d="M50.407 55.173l.001.002A30.87 30.87 0 0131.001 62C19.195 62 8.93 55.401 3.695 45.691l10.046-8.224c2.618 6.987 9.358 11.961 17.26 11.961a18.33 18.33 0 009.308-2.52l10.098 8.265z"
                      fill="#28B446"></path>
                    <path
                      d="M50.79 7.137l-10.043 8.222a18.324 18.324 0 00-9.744-2.787c-8.08 0-14.947 5.202-17.434 12.44L3.47 16.742C8.629 6.796 19.022 0 31.003 0A30.87 30.87 0 0150.79 7.137z"
                      fill="#F14336"></path>
                  </g>
                </svg>