<svg width="28" height="28" fill="none" xmlns="http://www.w3.org/2000/svg"><g fill="#000"><path d="M27.472 13.676c-.214-.314-5.351-7.663-13.472-7.663C7.03 6.013.822 13.32.56 13.63a.577.577 0 000 .738c.262.311 6.471 7.618 13.44 7.618s13.178-7.307 13.44-7.618a.575.575 0 00.032-.693zM14 20.846c-5.586 0-10.898-5.374-12.247-6.846C3.1 12.527 8.406 7.154 14 7.154c6.536 0 11.15 5.366 12.277 6.815-1.301 1.425-6.643 6.877-12.277 6.877z"></path><path d="M14 9.436c-2.495 0-4.524 2.047-4.524 4.564s2.029 4.564 4.524 4.564 4.524-2.047 4.524-4.564S16.495 9.436 14 9.436zm0 7.987c-1.87 0-3.393-1.536-3.393-3.423s1.522-3.423 3.393-3.423 3.393 1.536 3.393 3.423-1.522 3.423-3.393 3.423z"></path></g></svg>